<svg width="74" height="74" viewBox="0 0 74 74" fill="none" xmlns="http://www.w3.org/2000/svg">
<g filter="url(#filter0_dd_22_1442)">
<path d="M5 15C5 7.26801 11.268 1 19 1H55C62.732 1 69 7.26801 69 15V51C69 58.732 62.732 65 55 65H19C11.268 65 5 58.732 5 51V15Z" fill="url(#paint0_linear_22_1442)" shape-rendering="crispEdges"/>
<g clip-path="url(#clip0_22_1442)">
<path d="M19 15H55V51H19V15ZM52.051 42.414C51.7885 40.7715 50.719 39.3915 47.5465 38.1045C46.4425 37.587 45.2155 37.227 44.851 36.3945C44.7145 35.8995 44.6935 35.6295 44.782 35.337C45.007 34.368 46.1545 34.077 47.0545 34.347C47.6395 34.527 48.1795 34.977 48.5185 35.697C50.0695 34.683 50.0695 34.683 51.151 34.0095C50.746 33.3795 50.545 33.108 50.272 32.8395C49.327 31.782 48.0685 31.242 46.021 31.2885L44.9635 31.422C43.9495 31.6695 42.9835 32.2095 42.3985 32.9295C40.6885 34.866 41.182 38.241 43.252 39.636C45.2995 41.166 48.2935 41.502 48.676 42.9435C49.036 44.6985 47.371 45.261 45.727 45.0585C44.5105 44.7885 43.837 44.1795 43.0945 43.0545L40.3495 44.631C40.6645 45.351 41.0245 45.6645 41.5645 46.2945C44.1745 48.9285 50.6995 48.7935 51.871 44.7885C51.9145 44.6535 52.231 43.731 51.982 42.3135L52.051 42.414ZM38.5765 31.5465H35.2045C35.2045 34.4535 35.191 37.3425 35.191 40.254C35.191 42.102 35.2855 43.7985 34.984 44.3205C34.489 45.354 33.214 45.222 32.635 45.0405C32.041 44.7465 31.7395 44.3415 31.39 43.758C31.2955 43.6005 31.225 43.464 31.1995 43.464L28.462 45.1515C28.9195 46.0965 29.587 46.9095 30.448 47.427C31.7305 48.192 33.454 48.4395 35.2585 48.0345C36.433 47.6955 37.4455 46.998 37.975 45.918C38.74 44.523 38.578 42.813 38.5705 40.899C38.5885 37.818 38.5705 34.7355 38.5705 31.6305L38.5765 31.5465Z" fill="white"/>
</g>
</g>
<defs>
<filter id="filter0_dd_22_1442" x="0" y="0" width="74" height="74" filterUnits="userSpaceOnUse" color-interpolation-filters="sRGB">
<feFlood flood-opacity="0" result="BackgroundImageFix"/>
<feColorMatrix in="SourceAlpha" type="matrix" values="0 0 0 0 0 0 0 0 0 0 0 0 0 0 0 0 0 0 127 0" result="hardAlpha"/>
<feMorphology radius="2" operator="erode" in="SourceAlpha" result="effect1_dropShadow_22_1442"/>
<feOffset dy="2"/>
<feGaussianBlur stdDeviation="2"/>
<feComposite in2="hardAlpha" operator="out"/>
<feColorMatrix type="matrix" values="0 0 0 0 0 0 0 0 0 0 0 0 0 0 0 0 0 0 0.1 0"/>
<feBlend mode="normal" in2="BackgroundImageFix" result="effect1_dropShadow_22_1442"/>
<feColorMatrix in="SourceAlpha" type="matrix" values="0 0 0 0 0 0 0 0 0 0 0 0 0 0 0 0 0 0 127 0" result="hardAlpha"/>
<feMorphology radius="1" operator="erode" in="SourceAlpha" result="effect2_dropShadow_22_1442"/>
<feOffset dy="4"/>
<feGaussianBlur stdDeviation="3"/>
<feComposite in2="hardAlpha" operator="out"/>
<feColorMatrix type="matrix" values="0 0 0 0 0 0 0 0 0 0 0 0 0 0 0 0 0 0 0.1 0"/>
<feBlend mode="normal" in2="effect1_dropShadow_22_1442" result="effect2_dropShadow_22_1442"/>
<feBlend mode="normal" in="SourceGraphic" in2="effect2_dropShadow_22_1442" result="shape"/>
</filter>
<linearGradient id="paint0_linear_22_1442" x1="5" y1="1" x2="69" y2="65" gradientUnits="userSpaceOnUse">
<stop stop-color="#FF6900"/>
<stop offset="0.5" stop-color="#F6339A"/>
<stop offset="1" stop-color="#9810FA"/>
</linearGradient>
<clipPath id="clip0_22_1442">
<rect width="36" height="36" fill="white" transform="translate(19 15)"/>
</clipPath>
</defs>
</svg>
