<svg width="74" height="74" viewBox="0 0 74 74" fill="none" xmlns="http://www.w3.org/2000/svg">
<g filter="url(#filter0_dd_22_1448)">
<path d="M5 15C5 7.26801 11.268 1 19 1H55C62.732 1 69 7.26801 69 15V51C69 58.732 62.732 65 55 65H19C11.268 65 5 58.732 5 51V15Z" fill="url(#paint0_linear_22_1448)" shape-rendering="crispEdges"/>
<g clip-path="url(#clip0_22_1448)">
<path d="M37.0645 50.952C37.783 50.946 38.494 50.9085 39.2035 50.811C40.8288 50.5999 42.417 50.1643 43.9225 49.5165C46.0386 48.6085 47.9678 47.3156 49.612 45.7035C51.1257 44.2193 52.3649 42.479 53.272 40.563C54.0475 38.9141 54.5636 37.1554 54.802 35.349C55.0255 33.609 55.0045 31.83 54.7345 30.1005C54.509 28.6634 54.1096 27.2591 53.545 25.9185C53.1849 25.0764 52.7564 24.2652 52.264 23.493C50.512 20.7375 47.9725 18.522 45.049 17.043C44.005 16.5097 42.9145 16.0729 41.791 15.738H41.7835C41.962 15.8325 42.1435 15.936 42.301 16.0395C42.481 16.1505 42.6595 16.2585 42.8275 16.377C43.681 16.95 44.4656 17.6194 45.166 18.372C46.7605 20.0895 47.8615 22.194 48.493 24.4335C48.919 25.9065 49.144 27.4305 49.2355 28.959C49.3015 30.0735 49.3015 31.1955 49.165 32.3025C48.9415 34.2075 48.334 36.0675 47.323 37.6965C46.5786 38.9103 45.6099 39.9712 44.4685 40.8225C42.6025 42.2145 40.153 43.0455 37.8145 42.4935C37.4284 42.4027 37.0525 42.273 36.6925 42.1065C36.2823 41.9194 35.891 41.6934 35.524 41.4315C34.829 40.9671 34.2011 40.4094 33.658 39.774C32.9991 38.9885 32.4681 38.1042 32.0845 37.1535C31.6146 35.9371 31.3638 34.6472 31.3435 33.3435C31.2985 31.434 31.681 29.514 32.6245 27.8385C33.2566 26.7232 34.1046 25.7452 35.119 24.9615C35.4565 24.6945 35.815 24.462 36.175 24.243L36.199 24.2325C35.4907 24.0705 34.7629 24.0099 34.0375 24.0525C33.4108 24.0943 32.7919 24.2152 32.1955 24.4125C31.657 24.5925 31.1395 24.8175 30.667 25.0875C30.2832 25.3078 29.9158 25.5554 29.5675 25.8285C29.251 26.0985 28.9375 26.3685 28.645 26.661C26.9605 28.3905 25.993 30.684 25.612 33.045C25.387 34.5045 25.387 35.985 25.4755 37.47C25.633 39.5625 26.062 41.6505 26.893 43.563C27.3992 44.745 28.0808 45.8439 28.915 46.8225C30.1914 48.2966 31.8024 49.4436 33.613 50.1675C34.6272 50.5821 35.6938 50.8546 36.7825 50.9775C36.8935 51 37.006 51 37.096 51L37.0645 50.952ZM32.6635 50.355C32.4317 50.2549 32.2063 50.1407 31.9885 50.013C30.8596 49.4041 29.829 48.6284 28.9315 47.712C27.2905 46.0065 26.191 43.863 25.561 41.592C25.1461 40.0367 24.8972 38.4417 24.8185 36.834C24.752 35.7929 24.7751 34.7481 24.8875 33.711C25.09 31.8255 25.63 29.9595 26.5735 28.341C27.2516 27.147 28.1608 26.1001 29.248 25.2615C29.9922 24.6911 30.8179 24.236 31.6975 23.9115C33.4007 23.2948 35.2621 23.271 36.9805 23.844C37.024 23.844 37.024 23.844 37.048 23.889C37.0705 23.9115 37.1155 23.9115 37.138 23.934C37.2055 23.958 37.294 24.0015 37.3855 24.045C37.744 24.225 38.104 24.4515 38.4415 24.675C39.8018 25.6275 40.8868 26.9221 41.587 28.428C42.217 29.799 42.5095 31.329 42.5335 32.835C42.5545 34.4535 42.2635 36.0705 41.566 37.554C40.7154 39.3433 39.3336 40.8267 37.609 41.802C37.744 41.847 37.879 41.8695 38.0155 41.9145C38.353 41.9805 38.689 42.0255 39.0475 42.0255C41.2495 42.093 43.3855 41.0355 44.9575 39.555C45.25 39.285 45.52 38.9925 45.7675 38.6775C46.105 38.2725 46.42 37.8675 46.6885 37.443C47.047 36.8805 47.341 36.318 47.6095 35.712C47.9528 34.9097 48.2087 34.0729 48.373 33.216C48.667 31.71 48.6895 30.183 48.5965 28.677C48.394 25.644 47.587 22.6095 45.8335 20.091C45.5742 19.7178 45.2964 19.3578 45.001 19.0125C44.5092 18.4562 43.9762 17.9377 43.4065 17.4615C42.771 16.9389 42.0863 16.4792 41.362 16.089C40.5448 15.714 39.6954 15.4137 38.824 15.192L38.374 15.102C38.0605 15.057 37.744 15.036 37.423 15.012C36.9155 14.9895 36.4071 14.9975 35.9005 15.036C34.8445 15.1035 33.7825 15.276 32.7325 15.5415C27.6985 16.8405 23.2945 20.349 20.95 25.005C20.2019 26.4882 19.6656 28.0691 19.357 29.7015C19.0016 31.5684 18.9489 33.4803 19.201 35.364C19.381 36.894 19.762 38.3985 20.368 39.8295C20.7085 40.6845 21.1345 41.5155 21.6055 42.3015C23.2465 44.976 25.63 47.1555 28.3705 48.6615C29.4025 49.2465 30.4825 49.6965 31.606 50.0775C31.945 50.1885 32.281 50.3025 32.6395 50.3925L32.6635 50.355Z" fill="white"/>
</g>
</g>
<defs>
<filter id="filter0_dd_22_1448" x="0" y="0" width="74" height="74" filterUnits="userSpaceOnUse" color-interpolation-filters="sRGB">
<feFlood flood-opacity="0" result="BackgroundImageFix"/>
<feColorMatrix in="SourceAlpha" type="matrix" values="0 0 0 0 0 0 0 0 0 0 0 0 0 0 0 0 0 0 127 0" result="hardAlpha"/>
<feMorphology radius="2" operator="erode" in="SourceAlpha" result="effect1_dropShadow_22_1448"/>
<feOffset dy="2"/>
<feGaussianBlur stdDeviation="2"/>
<feComposite in2="hardAlpha" operator="out"/>
<feColorMatrix type="matrix" values="0 0 0 0 0 0 0 0 0 0 0 0 0 0 0 0 0 0 0.1 0"/>
<feBlend mode="normal" in2="BackgroundImageFix" result="effect1_dropShadow_22_1448"/>
<feColorMatrix in="SourceAlpha" type="matrix" values="0 0 0 0 0 0 0 0 0 0 0 0 0 0 0 0 0 0 127 0" result="hardAlpha"/>
<feMorphology radius="1" operator="erode" in="SourceAlpha" result="effect2_dropShadow_22_1448"/>
<feOffset dy="4"/>
<feGaussianBlur stdDeviation="3"/>
<feComposite in2="hardAlpha" operator="out"/>
<feColorMatrix type="matrix" values="0 0 0 0 0 0 0 0 0 0 0 0 0 0 0 0 0 0 0.1 0"/>
<feBlend mode="normal" in2="effect1_dropShadow_22_1448" result="effect2_dropShadow_22_1448"/>
<feBlend mode="normal" in="SourceGraphic" in2="effect2_dropShadow_22_1448" result="shape"/>
</filter>
<linearGradient id="paint0_linear_22_1448" x1="5" y1="1" x2="69" y2="65" gradientUnits="userSpaceOnUse">
<stop stop-color="#FF6900"/>
<stop offset="0.5" stop-color="#F6339A"/>
<stop offset="1" stop-color="#9810FA"/>
</linearGradient>
<clipPath id="clip0_22_1448">
<rect width="36" height="36" fill="white" transform="translate(19 15)"/>
</clipPath>
</defs>
</svg>
