<svg width="74" height="74" viewBox="0 0 74 74" fill="none" xmlns="http://www.w3.org/2000/svg">
<g filter="url(#filter0_dd_22_1476)">
<path d="M5 15C5 7.26801 11.268 1 19 1H55C62.732 1 69 7.26801 69 15V51C69 58.732 62.732 65 55 65H19C11.268 65 5 58.732 5 51V15Z" fill="url(#paint0_linear_22_1476)" shape-rendering="crispEdges"/>
<path d="M29.515 30.3105H28.099L27.3265 34.2825H28.5835C29.4175 34.2825 30.0385 34.125 30.4465 33.8115C30.8545 33.4965 31.129 32.973 31.2715 32.238C31.4095 31.533 31.3465 31.035 31.0855 30.7455C30.823 30.456 30.301 30.3105 29.515 30.3105ZM37 23.532C27.0595 23.532 19 27.771 19 33C19 38.229 27.0595 42.4695 37 42.4695C46.9405 42.4695 55 38.229 55 33C55 27.771 46.9405 23.532 37 23.532ZM32.11 34.7085C31.7185 35.0835 31.2475 35.3655 30.7345 35.535C30.2305 35.697 29.587 35.781 28.807 35.781H27.0355L26.545 38.3025H24.478L26.323 28.8135H30.298C31.4935 28.8135 32.365 29.127 32.914 29.7555C33.463 30.3825 33.628 31.2585 33.409 32.3835C33.3251 32.8286 33.1707 33.2575 32.9515 33.654C32.737 34.0365 32.4565 34.389 32.11 34.7085ZM38.146 35.781L38.9605 31.5825C39.055 31.1055 39.019 30.7785 38.8585 30.606C38.698 30.432 38.3545 30.345 37.828 30.345H36.19L35.134 35.7825H33.082L34.927 26.292H36.9775L36.487 28.815H38.314C39.4645 28.815 40.2565 29.016 40.693 29.4165C41.1295 29.817 41.26 30.4665 41.0875 31.365L40.2295 35.781H38.146ZM49.5415 32.3835C49.459 32.829 49.3045 33.2581 49.084 33.654C48.8695 34.0365 48.589 34.389 48.2425 34.7085C47.8508 35.0823 47.381 35.3646 46.867 35.535C46.363 35.697 45.7195 35.781 44.938 35.781H43.168L42.6775 38.304H40.6105L42.4555 28.815H46.429C47.6245 28.815 48.496 29.1285 49.045 29.757C49.594 30.3825 49.7605 31.2585 49.5415 32.3835ZM45.649 30.3105H44.2345L43.4605 34.2825H44.7175C45.553 34.2825 46.174 34.125 46.5805 33.8115C46.9885 33.4965 47.263 32.973 47.407 32.238C47.545 31.533 47.4805 31.035 47.2195 30.7455C46.9585 30.456 46.4335 30.3105 45.649 30.3105Z" fill="white"/>
</g>
<defs>
<filter id="filter0_dd_22_1476" x="0" y="0" width="74" height="74" filterUnits="userSpaceOnUse" color-interpolation-filters="sRGB">
<feFlood flood-opacity="0" result="BackgroundImageFix"/>
<feColorMatrix in="SourceAlpha" type="matrix" values="0 0 0 0 0 0 0 0 0 0 0 0 0 0 0 0 0 0 127 0" result="hardAlpha"/>
<feMorphology radius="2" operator="erode" in="SourceAlpha" result="effect1_dropShadow_22_1476"/>
<feOffset dy="2"/>
<feGaussianBlur stdDeviation="2"/>
<feComposite in2="hardAlpha" operator="out"/>
<feColorMatrix type="matrix" values="0 0 0 0 0 0 0 0 0 0 0 0 0 0 0 0 0 0 0.1 0"/>
<feBlend mode="normal" in2="BackgroundImageFix" result="effect1_dropShadow_22_1476"/>
<feColorMatrix in="SourceAlpha" type="matrix" values="0 0 0 0 0 0 0 0 0 0 0 0 0 0 0 0 0 0 127 0" result="hardAlpha"/>
<feMorphology radius="1" operator="erode" in="SourceAlpha" result="effect2_dropShadow_22_1476"/>
<feOffset dy="4"/>
<feGaussianBlur stdDeviation="3"/>
<feComposite in2="hardAlpha" operator="out"/>
<feColorMatrix type="matrix" values="0 0 0 0 0 0 0 0 0 0 0 0 0 0 0 0 0 0 0.1 0"/>
<feBlend mode="normal" in2="effect1_dropShadow_22_1476" result="effect2_dropShadow_22_1476"/>
<feBlend mode="normal" in="SourceGraphic" in2="effect2_dropShadow_22_1476" result="shape"/>
</filter>
<linearGradient id="paint0_linear_22_1476" x1="5" y1="1" x2="69" y2="65" gradientUnits="userSpaceOnUse">
<stop stop-color="#FF6900"/>
<stop offset="0.5" stop-color="#F6339A"/>
<stop offset="1" stop-color="#9810FA"/>
</linearGradient>
</defs>
</svg>
