<svg width="74" height="74" viewBox="0 0 74 74" fill="none" xmlns="http://www.w3.org/2000/svg">
<g filter="url(#filter0_dd_22_1424)">
<path d="M5 15C5 7.26801 11.268 1 19 1H55C62.732 1 69 7.26801 69 15V51C69 58.732 62.732 65 55 65H19C11.268 65 5 58.732 5 51V15Z" fill="url(#paint0_linear_22_1424)" shape-rendering="crispEdges"/>
<g clip-path="url(#clip0_22_1424)">
<path d="M40.375 15.27L41.725 15.57L42.82 15.96L43.705 16.41L44.38 16.89L44.89 17.4L45.265 17.91L45.505 18.405L45.655 18.855L45.715 19.245L45.745 19.545L45.73 19.74V27.75L45.655 28.695L45.46 29.52L45.145 30.21L44.755 30.78L44.305 31.245L43.81 31.62L43.285 31.905L42.76 32.115L42.265 32.265L41.815 32.37L41.425 32.43L41.11 32.46H32.155L31.12 32.535L30.235 32.745L29.485 33.075L28.87 33.48L28.375 33.96L27.97 34.485L27.67 35.025L27.445 35.58L27.295 36.105L27.19 36.585L27.13 36.99L27.1 37.305V41.895H23.755L23.44 41.85L23.02 41.745L22.54 41.565L22.015 41.295L21.475 40.905L20.935 40.365L20.41 39.675L19.93 38.79L19.51 37.695L19.195 36.375L18.985 34.8L18.91 32.955L19 31.125L19.24 29.565L19.6 28.26L20.08 27.195L20.62 26.34L21.22 25.68L21.85 25.185L22.48 24.825L23.08 24.585L23.62 24.435L24.1 24.36L24.46 24.345H24.7L24.79 24.36H37.03V23.115H28.27L28.255 18.99L28.225 18.435L28.3 17.925L28.465 17.46L28.72 17.04L29.095 16.65L29.56 16.305L30.13 16.005L30.79 15.735L31.555 15.51L32.425 15.33L33.385 15.18L34.45 15.09L35.605 15.03L36.865 15L38.77 15.075L40.375 15.27ZM30.925 18.24L30.58 18.735L30.46 19.35L30.58 19.965L30.925 20.475L31.42 20.805L32.035 20.94L32.65 20.805L33.145 20.475L33.49 19.965L33.61 19.35L33.49 18.735L33.145 18.24L32.65 17.91L32.035 17.775L31.42 17.91L30.925 18.24ZM50.56 24.165L50.98 24.255L51.46 24.435L51.985 24.705L52.525 25.11L53.065 25.635L53.59 26.34L54.07 27.225L54.49 28.32L54.805 29.64L55.015 31.2L55.09 33.045L55 34.89L54.76 36.45L54.4 37.74L53.92 38.805L53.38 39.66L52.78 40.335L52.15 40.83L51.52 41.19L50.92 41.43L50.38 41.565L49.9 41.64L49.54 41.67L49.3 41.655H36.97V42.885H45.73L45.745 47.025L45.775 47.565L45.7 48.075L45.535 48.54L45.28 48.975L44.905 49.35L44.44 49.71L43.87 50.01L43.21 50.265L42.445 50.49L41.575 50.685L40.615 50.82L39.55 50.925L38.395 50.985L37.135 51L35.23 50.94L33.625 50.73L32.275 50.43L31.18 50.055L30.295 49.605L29.62 49.11L29.11 48.6L28.735 48.09L28.495 47.595L28.345 47.145L28.285 46.77L28.255 46.47L28.27 46.275V38.265L28.345 37.305L28.54 36.495L28.855 35.805L29.245 35.235L29.695 34.755L30.19 34.395L30.715 34.095L31.24 33.885L31.735 33.735L32.185 33.645L32.575 33.585L32.89 33.555L33.085 33.54H41.845L42.88 33.465L43.765 33.255L44.515 32.94L45.13 32.52L45.625 32.04L46.03 31.515L46.33 30.975L46.555 30.435L46.705 29.91L46.81 29.43L46.87 29.01L46.9 28.695V24.105H50.035L50.245 24.12L50.56 24.165ZM40.855 45.54L40.51 46.035L40.39 46.65L40.51 47.265L40.855 47.76L41.35 48.105L41.965 48.225L42.58 48.105L43.075 47.76L43.42 47.265L43.54 46.65L43.42 46.035L43.075 45.54L42.58 45.195L41.965 45.075L41.35 45.195L40.855 45.54Z" fill="white"/>
</g>
</g>
<defs>
<filter id="filter0_dd_22_1424" x="0" y="0" width="74" height="74" filterUnits="userSpaceOnUse" color-interpolation-filters="sRGB">
<feFlood flood-opacity="0" result="BackgroundImageFix"/>
<feColorMatrix in="SourceAlpha" type="matrix" values="0 0 0 0 0 0 0 0 0 0 0 0 0 0 0 0 0 0 127 0" result="hardAlpha"/>
<feMorphology radius="2" operator="erode" in="SourceAlpha" result="effect1_dropShadow_22_1424"/>
<feOffset dy="2"/>
<feGaussianBlur stdDeviation="2"/>
<feComposite in2="hardAlpha" operator="out"/>
<feColorMatrix type="matrix" values="0 0 0 0 0 0 0 0 0 0 0 0 0 0 0 0 0 0 0.1 0"/>
<feBlend mode="normal" in2="BackgroundImageFix" result="effect1_dropShadow_22_1424"/>
<feColorMatrix in="SourceAlpha" type="matrix" values="0 0 0 0 0 0 0 0 0 0 0 0 0 0 0 0 0 0 127 0" result="hardAlpha"/>
<feMorphology radius="1" operator="erode" in="SourceAlpha" result="effect2_dropShadow_22_1424"/>
<feOffset dy="4"/>
<feGaussianBlur stdDeviation="3"/>
<feComposite in2="hardAlpha" operator="out"/>
<feColorMatrix type="matrix" values="0 0 0 0 0 0 0 0 0 0 0 0 0 0 0 0 0 0 0.1 0"/>
<feBlend mode="normal" in2="effect1_dropShadow_22_1424" result="effect2_dropShadow_22_1424"/>
<feBlend mode="normal" in="SourceGraphic" in2="effect2_dropShadow_22_1424" result="shape"/>
</filter>
<linearGradient id="paint0_linear_22_1424" x1="5" y1="1" x2="69" y2="65" gradientUnits="userSpaceOnUse">
<stop stop-color="#FF6900"/>
<stop offset="0.5" stop-color="#F6339A"/>
<stop offset="1" stop-color="#9810FA"/>
</linearGradient>
<clipPath id="clip0_22_1424">
<rect width="36" height="36" fill="white" transform="translate(19 15)"/>
</clipPath>
</defs>
</svg>
