<svg width="74" height="74" viewBox="0 0 74 74" fill="none" xmlns="http://www.w3.org/2000/svg">
<g filter="url(#filter0_dd_6_9)">
<path d="M5 15C5 7.26801 11.268 1 19 1H55C62.732 1 69 7.26801 69 15V51C69 58.732 62.732 65 55 65H19C11.268 65 5 58.732 5 51V15Z" fill="url(#paint0_linear_6_9)" shape-rendering="crispEdges"/>
<path d="M50.3334 43.25C50.3334 47.0239 44.3638 50.0833 37 50.0833C29.6362 50.0833 23.6667 47.0239 23.6667 43.25V36.3722C24.5037 37.4256 25.6916 38.3007 27.0129 38.9779C29.6334 40.3209 33.1661 41.1146 37 41.1146C40.8339 41.1146 44.3666 40.3209 46.9871 38.9779C48.3084 38.3007 49.4963 37.4256 50.3334 36.3722V43.25Z" fill="black"/>
<path d="M50.3334 43.25C50.3334 47.0239 44.3638 50.0833 37 50.0833C29.6362 50.0833 23.6667 47.0239 23.6667 43.25V36.3722C24.5037 37.4256 25.6916 38.3007 27.0129 38.9779C29.6334 40.3209 33.1661 41.1146 37 41.1146C40.8339 41.1146 44.3666 40.3209 46.9871 38.9779C48.3084 38.3007 49.4963 37.4256 50.3334 36.3722V43.25Z" fill="white"/>
<path d="M37 30.8646C40.8339 30.8646 44.3666 30.0709 46.9871 28.7279C48.3084 28.0507 49.4963 27.1756 50.3334 26.1222V33C50.3334 33.8542 47.3572 35.7181 45.8691 36.6859C43.6639 37.8161 40.5299 38.5521 37 38.5521C33.4701 38.5521 30.3362 37.8161 28.1309 36.6859C26.1667 35.6792 23.6667 33.8542 23.6667 33V26.1222C24.5037 27.1756 25.6916 28.0507 27.0129 28.7279C29.6334 30.0709 33.1661 30.8646 37 30.8646Z" fill="black"/>
<path d="M37 30.8646C40.8339 30.8646 44.3666 30.0709 46.9871 28.7279C48.3084 28.0507 49.4963 27.1756 50.3334 26.1222V33C50.3334 33.8542 47.3572 35.7181 45.8691 36.6859C43.6639 37.8161 40.5299 38.5521 37 38.5521C33.4701 38.5521 30.3362 37.8161 28.1309 36.6859C26.1667 35.6792 23.6667 33.8542 23.6667 33V26.1222C24.5037 27.1756 25.6916 28.0507 27.0129 28.7279C29.6334 30.0709 33.1661 30.8646 37 30.8646Z" fill="white"/>
<path d="M45.8691 26.4359C43.6639 27.5661 40.5299 28.3021 37 28.3021C33.4701 28.3021 30.3362 27.5661 28.1309 26.4359C27.2414 26.0787 25.2002 24.9145 23.8565 23.0287C23.7297 22.8506 23.6738 22.6318 23.6997 22.4147C23.7373 22.0992 23.8017 21.7059 23.893 21.4897C25.0469 18.3178 30.4763 15.9167 37 15.9167C43.5237 15.9167 48.9531 18.3178 50.107 21.4897C50.1983 21.7059 50.2628 22.0992 50.3004 22.4147C50.3262 22.6318 50.2704 22.8506 50.1435 23.0287C48.7999 24.9145 46.7586 26.0787 45.8691 26.4359Z" fill="black"/>
<path d="M45.8691 26.4359C43.6639 27.5661 40.5299 28.3021 37 28.3021C33.4701 28.3021 30.3362 27.5661 28.1309 26.4359C27.2414 26.0787 25.2002 24.9145 23.8565 23.0287C23.7297 22.8506 23.6738 22.6318 23.6997 22.4147C23.7373 22.0992 23.8017 21.7059 23.893 21.4897C25.0469 18.3178 30.4763 15.9167 37 15.9167C43.5237 15.9167 48.9531 18.3178 50.107 21.4897C50.1983 21.7059 50.2628 22.0992 50.3004 22.4147C50.3262 22.6318 50.2704 22.8506 50.1435 23.0287C48.7999 24.9145 46.7586 26.0787 45.8691 26.4359Z" fill="white"/>
</g>
<defs>
<filter id="filter0_dd_6_9" x="0" y="0" width="74" height="74" filterUnits="userSpaceOnUse" color-interpolation-filters="sRGB">
<feFlood flood-opacity="0" result="BackgroundImageFix"/>
<feColorMatrix in="SourceAlpha" type="matrix" values="0 0 0 0 0 0 0 0 0 0 0 0 0 0 0 0 0 0 127 0" result="hardAlpha"/>
<feMorphology radius="2" operator="erode" in="SourceAlpha" result="effect1_dropShadow_6_9"/>
<feOffset dy="2"/>
<feGaussianBlur stdDeviation="2"/>
<feComposite in2="hardAlpha" operator="out"/>
<feColorMatrix type="matrix" values="0 0 0 0 0 0 0 0 0 0 0 0 0 0 0 0 0 0 0.1 0"/>
<feBlend mode="normal" in2="BackgroundImageFix" result="effect1_dropShadow_6_9"/>
<feColorMatrix in="SourceAlpha" type="matrix" values="0 0 0 0 0 0 0 0 0 0 0 0 0 0 0 0 0 0 127 0" result="hardAlpha"/>
<feMorphology radius="1" operator="erode" in="SourceAlpha" result="effect2_dropShadow_6_9"/>
<feOffset dy="4"/>
<feGaussianBlur stdDeviation="3"/>
<feComposite in2="hardAlpha" operator="out"/>
<feColorMatrix type="matrix" values="0 0 0 0 0 0 0 0 0 0 0 0 0 0 0 0 0 0 0.1 0"/>
<feBlend mode="normal" in2="effect1_dropShadow_6_9" result="effect2_dropShadow_6_9"/>
<feBlend mode="normal" in="SourceGraphic" in2="effect2_dropShadow_6_9" result="shape"/>
</filter>
<linearGradient id="paint0_linear_6_9" x1="5" y1="1" x2="69" y2="65" gradientUnits="userSpaceOnUse">
<stop stop-color="#FF6900"/>
<stop offset="0.5" stop-color="#F6339A"/>
<stop offset="1" stop-color="#9810FA"/>
</linearGradient>
</defs>
</svg>
